<?xml version="1.0" encoding="UTF-8" standalone="no"?>
<!DOCTYPE svg PUBLIC "-//W3C//DTD SVG 1.1//EN" "http://www.w3.org/Graphics/SVG/1.1/DTD/svg11.dtd">
<svg xmlns="http://www.w3.org/2000/svg" version="1.1" viewBox="0.00 0.00 171.00 171.00">
<g stroke-width="2.00" fill="none" stroke-linecap="butt">
<path stroke="#99553b" vector-effect="non-scaling-stroke" d="
  M 146.52 52.09
  C 168.21 94.90 142.86 146.33 95.21 153.62
  C 80.60 155.86 65.21 153.43 52.26 146.49
  Q 25.26 132.03 16.76 101.75"
/>
<path stroke="#c59598" vector-effect="non-scaling-stroke" d="
  M 84.53 79.12
  A 0.47 0.47 0.0 0 0 85.00 78.65
  L 85.00 34.77
  Q 85.00 34.27 84.51 34.20
  C 80.94 33.71 74.78 33.57 74.77 37.56
  Q 74.72 58.08 74.76 78.62
  Q 74.76 79.00 75.15 79.01
  L 84.53 79.12"
/>
<path stroke="#c59598" vector-effect="non-scaling-stroke" d="
  M 115.73 67.22
  C 115.47 74.28 99.62 74.67 98.07 65.74
  A 0.59 0.58 83.8 0 0 97.47 65.25
  L 90.00 65.58
  Q 89.51 65.60 89.53 66.09
  Q 90.01 76.33 99.91 78.84
  C 109.68 81.31 124.50 79.70 124.76 66.49
  C 125.03 52.66 108.72 55.89 101.01 50.48
  C 92.43 44.45 108.48 36.15 114.82 46.73
  Q 115.11 47.22 115.65 47.39
  Q 118.95 48.43 122.40 47.87
  Q 122.93 47.78 122.88 47.25
  Q 121.82 36.36 110.77 34.71
  C 102.69 33.51 93.08 34.85 90.70 43.95
  C 85.45 64.03 116.10 57.63 115.73 67.22"
/>
<path stroke="#c59598" vector-effect="non-scaling-stroke" d="
  M 68.55 45.50
  Q 64.89 42.83 68.51 40.22
  A 0.35 0.35 0.0 0 0 68.18 39.61
  L 62.33 41.85
  A 0.94 0.94 0.0 0 0 62.32 43.60
  L 68.30 45.95
  A 0.26 0.26 0.0 0 0 68.55 45.50"
/>
<path stroke="#c59598" vector-effect="non-scaling-stroke" d="
  M 68.45 50.60
  C 68.02 49.38 62.95 51.61 62.28 48.70
  Q 62.24 48.50 62.03 48.50
  Q 61.88 48.50 61.72 48.49
  A 0.36 0.36 0.0 0 0 61.35 48.97
  Q 61.94 50.65 61.62 52.35
  Q 61.57 52.63 61.75 52.85
  Q 61.84 52.95 61.94 53.08
  Q 62.30 53.56 62.45 52.97
  L 62.77 51.72
  A 0.60 0.59 6.3 0 1 63.34 51.27
  L 68.02 51.21
  A 0.46 0.46 0.0 0 0 68.45 50.60"
/>
<path stroke="#c59598" vector-effect="non-scaling-stroke" d="
  M 67.73 56.56
  A 0.92 0.92 0.0 0 1 66.85 57.74
  L 61.31 57.76
  A 0.33 0.32 52.2 0 0 61.23 58.40
  Q 64.55 59.26 67.98 58.55
  Q 68.44 58.45 68.46 57.99
  L 68.60 55.69
  A 0.49 0.40 64.1 0 0 67.80 55.32
  Q 67.54 55.91 67.73 56.56"
/>
<path stroke="#c59598" vector-effect="non-scaling-stroke" d="
  M 67.81 67.44
  Q 65.51 64.89 68.30 62.86
  A 0.33 0.33 0.0 0 0 68.01 62.27
  Q 64.91 63.21 61.99 64.69
  A 0.72 0.71 -47.3 0 0 62.04 65.99
  L 68.23 68.48
  A 0.27 0.27 0.0 0 0 68.58 68.14
  Q 68.35 67.51 67.81 67.44"
/>
<path stroke="#c59598" vector-effect="non-scaling-stroke" d="
  M 62.69 74.27
  L 62.40 72.34
  Q 62.39 72.25 62.29 72.25
  Q 62.15 72.25 62.02 72.25
  Q 61.54 72.24 61.51 72.72
  Q 61.40 74.84 63.13 75.72
  A 0.87 0.86 33.9 0 0 64.17 75.52
  L 66.14 73.25
  A 0.77 0.75 -56.5 0 1 67.03 73.06
  L 67.27 73.17
  Q 67.93 73.48 67.64 74.15
  Q 67.37 74.78 67.45 75.17
  A 0.61 0.61 0.0 0 0 68.65 74.99
  C 68.28 70.86 64.97 70.69 64.16 74.32
  A 0.75 0.75 0.0 0 1 62.69 74.27"
/>
<path stroke="#c59598" vector-effect="non-scaling-stroke" d="
  M 125.04 94.54
  L 125.33 117.04
  Q 125.34 117.50 125.79 117.50
  L 134.12 117.50
  A 0.62 0.61 90.0 0 0 134.73 116.88
  L 134.64 84.20
  Q 134.64 83.50 133.95 83.50
  L 119.91 83.50
  Q 119.52 83.50 119.40 83.88
  L 109.15 117.04
  Q 108.83 118.06 108.56 117.03
  L 99.82 83.92
  Q 99.69 83.43 99.19 83.43
  L 89.71 83.53
  A 5.01 5.01 0.0 0 0 84.75 88.54
  L 84.75 139.04
  Q 84.75 139.52 85.23 139.52
  L 93.86 139.53
  Q 94.25 139.53 94.25 139.14
  L 94.25 94.53
  A 0.24 0.24 0.0 0 1 94.72 94.48
  L 103.37 128.91
  A 1.11 1.10 82.9 0 0 104.44 129.75
  L 113.40 129.75
  Q 113.92 129.75 114.07 129.25
  L 124.57 94.48
  A 0.24 0.24 0.0 0 1 125.04 94.54"
/>
<path stroke="#c59598" vector-effect="non-scaling-stroke" d="
  M 34.64 83.77
  L 34.70 114.43
  A 0.31 0.31 0.0 0 0 35.01 114.74
  L 47.77 114.72
  A 13.27 13.25 89.9 0 0 60.99 101.43
  L 60.99 96.69
  A 13.27 13.25 89.9 0 0 47.71 83.44
  L 34.95 83.46
  A 0.31 0.31 0.0 0 0 34.64 83.77"
/>
<path stroke="#c59598" vector-effect="non-scaling-stroke" d="
  M 68.60 106.23
  A 0.43 0.43 0.0 0 1 69.03 105.75
  L 80.82 105.75
  Q 81.61 105.75 81.49 104.97
  Q 81.33 103.99 81.31 103.03
  C 81.01 88.05 57.65 92.67 64.31 109.48
  C 67.06 116.41 78.64 116.87 80.79 108.93
  Q 80.91 108.47 80.44 108.36
  C 76.42 107.45 75.50 110.17 72.53 110.24
  Q 69.09 110.32 68.60 106.23"
/>
<path stroke="#c59598" vector-effect="non-scaling-stroke" d="
  M 63.71 43.12
  L 65.34 43.90
  Q 65.96 44.20 65.98 43.51
  L 66.01 42.27
  Q 66.03 41.46 65.25 41.68
  L 63.79 42.09
  A 0.55 0.55 0.0 0 0 63.71 43.12"
/>
<path stroke="#d3bfa2" vector-effect="non-scaling-stroke" d="
  M 65.98 160.01
  L 67.58 165.01
  A 0.92 0.92 0.0 0 0 69.36 164.92
  L 70.88 157.89
  Q 71.01 157.30 70.40 157.22
  C 69.04 157.05 68.97 160.69 68.77 161.58
  A 0.38 0.38 0.0 0 1 68.04 161.61
  L 66.65 157.00
  A 1.14 1.14 0.0 0 0 64.45 157.08
  L 62.95 163.87
  A 0.50 0.49 -77.5 0 0 63.32 164.46
  C 64.77 164.81 65.03 161.06 65.36 160.01
  Q 65.67 159.05 65.98 160.01"
/>
<path stroke="#d3bfa2" vector-effect="non-scaling-stroke" d="
  M 98.66 158.14
  Q 99.80 158.74 100.86 158.06
  A 1.00 0.99 -10.5 0 1 102.38 159.10
  L 101.18 164.74
  A 0.57 0.57 0.0 0 0 102.03 165.35
  C 103.13 164.71 104.01 158.01 104.22 156.49
  A 0.47 0.47 0.0 0 0 103.63 155.97
  L 98.76 157.28
  A 0.47 0.46 51.7 0 0 98.66 158.14"
/>
<path stroke="#d3bfa2" vector-effect="non-scaling-stroke" d="
  M 95.4753 166.4987
  A 4.46 3.11 82.2 0 0 97.9512 161.6579
  A 4.46 3.11 82.2 0 0 94.2647 157.6613
  A 4.46 3.11 82.2 0 0 91.7888 162.5021
  A 4.46 3.11 82.2 0 0 95.4753 166.4987"
/>
<path stroke="#d3bfa2" vector-effect="non-scaling-stroke" d="
  M 72.8257 161.9677
  A 2.21 1.97 118.2 0 0 75.6062 160.9509
  A 2.21 1.97 118.2 0 0 74.9143 158.0723
  A 2.21 1.97 118.2 0 0 72.1338 159.0891
  A 2.21 1.97 118.2 0 0 72.8257 161.9677"
/>
<path stroke="#d3bfa2" vector-effect="non-scaling-stroke" d="
  M 77.69 162.56
  L 76.78 164.13
  A 1.03 1.02 46.6 0 0 76.76 165.13
  C 77.95 167.36 82.38 167.97 82.84 164.92
  A 1.43 1.43 0.0 0 0 82.57 163.87
  Q 81.43 162.34 82.80 161.04
  A 0.82 0.81 54.1 0 0 82.95 160.05
  Q 81.72 157.85 78.93 158.36
  A 1.80 1.80 0.0 0 0 77.53 160.68
  L 77.80 161.57
  Q 77.96 162.09 77.69 162.56"
/>
<path stroke="#d3bfa2" vector-effect="non-scaling-stroke" d="
  M 86.94 164.95
  C 87.93 163.90 89.57 163.09 89.94 161.75
  C 91.15 157.42 84.54 157.70 84.80 160.69
  A 0.44 0.44 0.0 0 0 85.51 161.00
  L 87.09 159.76
  A 0.70 0.70 0.0 0 1 88.03 159.84
  C 89.63 161.59 85.34 164.13 84.53 166.22
  A 0.59 0.59 0.0 0 0 85.09 167.02
  L 89.70 166.96
  Q 90.24 166.95 90.25 166.42
  C 90.29 164.84 88.12 165.66 87.26 165.66
  A 0.43 0.42 21.1 0 1 86.94 164.95"
/>
<path stroke="#c59598" vector-effect="non-scaling-stroke" d="
  M 63.77 65.95
  L 65.34 66.35
  Q 66.00 66.51 66.00 65.84
  L 66.00 64.71
  A 0.57 0.57 0.0 0 0 65.19 64.20
  L 63.67 64.90
  A 0.56 0.56 0.0 0 0 63.77 65.95"
/>
<path stroke="#c59598" vector-effect="non-scaling-stroke" d="
  M 40.98 89.61
  L 40.92 108.37
  A 0.67 0.67 0.0 0 0 41.58 109.04
  L 46.99 109.06
  A 8.04 7.48 -89.8 0 0 54.50 101.04
  L 54.52 97.02
  A 8.04 7.48 -89.8 0 0 47.07 88.96
  L 41.66 88.94
  A 0.67 0.67 0.0 0 0 40.98 89.61"
/>
<path stroke="#c59598" vector-effect="non-scaling-stroke" d="
  M 69.01 102.02
  L 75.73 102.26
  A 0.26 0.26 0.0 0 0 76.00 102.01
  L 76.00 101.87
  A 3.50 3.48 -88.0 0 0 72.65 98.25
  L 72.37 98.24
  A 3.50 3.48 -88.0 0 0 68.77 101.61
  L 68.76 101.75
  A 0.26 0.26 0.0 0 0 69.01 102.02"
/>
<path stroke="#d3bfa2" vector-effect="non-scaling-stroke" d="
  M 95.2782 165.0990
  A 3.07 1.50 83.3 0 0 96.4098 161.8750
  A 3.07 1.50 83.3 0 0 94.5618 159.0010
  A 3.07 1.50 83.3 0 0 93.4302 162.2250
  A 3.07 1.50 83.3 0 0 95.2782 165.0990"
/>
<path stroke="#b4a996" stroke-opacity="0.976" vector-effect="non-scaling-stroke" d="
  M 73.4928 161.0203
  A 1.04 0.83 109.5 0 0 74.6224 160.3171
  A 1.04 0.83 109.5 0 0 74.1872 159.0597
  A 1.04 0.83 109.5 0 0 73.0576 159.7629
  A 1.04 0.83 109.5 0 0 73.4928 161.0203"
/>
<path stroke="#d3bfa2" vector-effect="non-scaling-stroke" d="
  M 81.19 160.49
  A 1.08 1.08 0.0 0 0 80.11 159.41
  A 1.08 1.08 0.0 0 0 79.03 160.49
  A 1.08 1.08 0.0 0 0 80.11 161.57
  A 1.08 1.08 0.0 0 0 81.19 160.49"
/>
<path stroke="#d3bfa2" vector-effect="non-scaling-stroke" d="
  M 81.3798 164.5024
  A 1.58 1.31 -1.0 0 0 79.7771 163.2202
  A 1.58 1.31 -1.0 0 0 78.2202 164.5576
  A 1.58 1.31 -1.0 0 0 79.8229 165.8398
  A 1.58 1.31 -1.0 0 0 81.3798 164.5024"
/>
</g>
<path fill="#654e28" fill-opacity="0.949" d="
  M 92.09 3.08
  L 94.99 5.32
  A 1.28 1.25 14.4 0 1 95.48 6.13
  C 96.11 9.90 91.63 9.79 90.02 7.36
  A 0.59 0.59 0.0 0 1 90.89 6.59
  L 92.38 7.86
  Q 92.78 8.20 93.28 8.04
  Q 94.18 7.77 94.26 6.94
  Q 94.31 6.42 93.88 6.13
  L 90.94 4.16
  Q 90.55 3.90 90.53 3.43
  C 90.38 0.16 94.02 -0.23 95.58 1.74
  A 0.76 0.75 3.4 0 1 94.45 2.74
  L 93.80 2.09
  A 1.30 1.30 0.0 0 0 92.93 1.71
  Q 92.37 1.69 92.00 2.13
  Q 91.54 2.66 92.09 3.08
  Z"
/>
<path fill="#654e28" fill-opacity="0.949" d="
  M 75.25 7.75
  L 78.51 7.41
  A 0.48 0.48 0.0 0 1 78.67 8.35
  L 74.23 9.39
  A 0.57 0.56 80.7 0 1 73.54 8.89
  L 72.95 1.81
  Q 72.91 1.25 73.47 1.25
  L 73.76 1.25
  Q 74.03 1.25 74.09 1.51
  Q 74.76 4.38 74.77 7.32
  Q 74.77 7.80 75.25 7.75
  Z"
/>
<path fill="#654e28" fill-opacity="0.949" d="
  M 65.17 4.99
  Q 66.36 5.92 67.94 5.39
  Q 68.50 5.20 68.50 5.79
  L 68.50 6.05
  A 0.36 0.36 0.0 0 1 68.19 6.41
  L 66.59 6.65
  A 1.15 1.15 0.0 0 0 65.95 8.60
  C 67.80 10.44 69.34 7.63 70.47 8.67
  A 0.52 0.52 0.0 0 1 70.40 9.49
  Q 68.23 10.87 65.63 10.47
  A 0.84 0.83 87.4 0 1 64.94 9.83
  L 63.47 3.38
  Q 63.34 2.81 63.91 2.70
  L 68.28 1.87
  Q 68.87 1.76 68.53 2.25
  Q 67.54 3.68 65.73 3.55
  A 0.81 0.81 0.0 0 0 65.17 4.99
  Z"
/>
<path fill="#654e28" fill-opacity="0.949" d="
  M 98.88 9.99
  A 0.17 0.17 0.0 0 1 98.74 9.79
  L 99.71 4.04
  A 2.36 0.69 -80.4 0 1 100.79 1.83
  L 100.99 1.87
  A 2.36 0.69 -80.4 0 1 101.27 4.31
  L 100.30 10.06
  A 0.17 0.17 0.0 0 1 100.10 10.19
  L 98.88 9.99
  Z"
/>
<path fill="#5a4929" fill-opacity="0.643" d="
  M 105.82 8.63
  A 1.73 1.72 -62.7 0 0 106.57 11.00
  Q 107.83 11.63 108.42 10.95
  Q 108.84 10.48 108.57 9.91
  L 108.28 9.31
  Q 107.98 8.68 108.65 8.48
  Q 109.95 8.11 110.96 9.51
  A 1.71 1.71 0.0 0 1 110.29 12.07
  C 106.19 13.95 103.12 10.16 105.21 6.09
  C 107.37 1.88 112.63 4.90 111.36 6.47
  A 0.52 0.51 -52.9 0 1 110.68 6.57
  L 108.55 5.14
  A 0.68 0.68 0.0 0 0 107.57 5.38
  L 105.82 8.63
  Z"
/>
<path fill="#5a4929" fill-opacity="0.643" d="
  M 117.64 14.70
  A 0.52 0.52 0.0 0 1 118.01 15.53
  L 117.78 15.84
  Q 117.42 16.34 116.86 16.08
  L 113.72 14.65
  A 0.94 0.94 0.0 0 1 113.26 13.39
  L 116.22 7.28
  A 0.75 0.75 0.0 0 1 117.61 7.84
  C 116.94 9.84 113.56 14.28 117.64 14.70
  Z"
/>
<path fill="#654e28" fill-opacity="0.949" d="
  M 52.79 14.37
  A 2.38 1.85 5.8 0 0 49.39 16.50
  Q 49.62 16.99 49.31 17.45
  A 0.48 0.48 0.0 0 1 48.44 17.28
  L 46.91 9.74
  A 1.14 1.14 0.0 0 1 48.83 8.71
  L 53.96 13.83
  Q 54.54 14.42 53.72 14.51
  Q 53.20 14.57 52.79 14.37
  Z
  M 50.35 13.32
  C 50.95 12.03 50.18 11.46 49.23 10.97
  Q 48.75 10.73 48.75 11.27
  L 48.75 12.97
  A 0.84 0.84 0.0 0 0 50.35 13.32
  Z"
/>
<path fill="#5a4929" fill-opacity="0.643" d="
  M 122.7501 19.3894
  A 4.42 3.65 119.7 0 1 121.7695 13.7416
  A 4.42 3.65 119.7 0 1 127.1299 11.7106
  A 4.42 3.65 119.7 0 1 128.1105 17.3584
  A 4.42 3.65 119.7 0 1 122.7501 19.3894
  Z
  M 123.4436 17.9378
  A 2.85 1.77 121.2 0 0 126.4340 16.4169
  A 2.85 1.77 121.2 0 0 126.3964 13.0622
  A 2.85 1.77 121.2 0 0 123.4060 14.5831
  A 2.85 1.77 121.2 0 0 123.4436 17.9378
  Z"
/>
<path fill="#654e28" fill-opacity="0.949" d="
  M 41.61 17.93
  A 0.59 0.59 0.0 0 0 40.79 18.39
  L 40.74 18.74
  A 1.02 1.01 26.7 0 0 41.02 19.57
  Q 41.85 20.43 41.73 21.50
  A 0.55 0.55 0.0 0 1 40.73 21.75
  L 36.87 15.93
  Q 36.53 15.41 36.98 15.00
  Q 39.20 12.99 42.28 13.55
  A 0.66 0.65 10.5 0 1 42.81 14.31
  Q 42.23 17.52 45.47 18.33
  A 0.48 0.47 29.8 0 1 45.69 19.13
  L 45.47 19.35
  A 0.64 0.64 0.0 0 1 44.70 19.46
  Q 43.19 18.63 41.61 17.93
  Z
  M 41.5340 15.0950
  A 1.58 1.30 -26.5 0 0 39.5399 14.6366
  A 1.58 1.30 -26.5 0 0 38.7060 16.5050
  A 1.58 1.30 -26.5 0 0 40.7001 16.9634
  A 1.58 1.30 -26.5 0 0 41.5340 15.0950
  Z"
/>
<path fill="#8b2a31" d="
  M 146.52 52.09
  C 168.21 94.90 142.86 146.33 95.21 153.62
  C 80.60 155.86 65.21 153.43 52.26 146.49
  Q 25.26 132.03 16.76 101.75
  Q 16.60 99.88 16.17 97.77
  C 8.43 59.31 34.82 22.22 73.00 15.76
  C 103.19 10.66 131.92 25.43 146.52 52.09
  Z
  M 84.53 79.12
  A 0.47 0.47 0.0 0 0 85.00 78.65
  L 85.00 34.77
  Q 85.00 34.27 84.51 34.20
  C 80.94 33.71 74.78 33.57 74.77 37.56
  Q 74.72 58.08 74.76 78.62
  Q 74.76 79.00 75.15 79.01
  L 84.53 79.12
  Z
  M 115.73 67.22
  C 115.47 74.28 99.62 74.67 98.07 65.74
  A 0.59 0.58 83.8 0 0 97.47 65.25
  L 90.00 65.58
  Q 89.51 65.60 89.53 66.09
  Q 90.01 76.33 99.91 78.84
  C 109.68 81.31 124.50 79.70 124.76 66.49
  C 125.03 52.66 108.72 55.89 101.01 50.48
  C 92.43 44.45 108.48 36.15 114.82 46.73
  Q 115.11 47.22 115.65 47.39
  Q 118.95 48.43 122.40 47.87
  Q 122.93 47.78 122.88 47.25
  Q 121.82 36.36 110.77 34.71
  C 102.69 33.51 93.08 34.85 90.70 43.95
  C 85.45 64.03 116.10 57.63 115.73 67.22
  Z
  M 68.55 45.50
  Q 64.89 42.83 68.51 40.22
  A 0.35 0.35 0.0 0 0 68.18 39.61
  L 62.33 41.85
  A 0.94 0.94 0.0 0 0 62.32 43.60
  L 68.30 45.95
  A 0.26 0.26 0.0 0 0 68.55 45.50
  Z
  M 68.45 50.60
  C 68.02 49.38 62.95 51.61 62.28 48.70
  Q 62.24 48.50 62.03 48.50
  Q 61.88 48.50 61.72 48.49
  A 0.36 0.36 0.0 0 0 61.35 48.97
  Q 61.94 50.65 61.62 52.35
  Q 61.57 52.63 61.75 52.85
  Q 61.84 52.95 61.94 53.08
  Q 62.30 53.56 62.45 52.97
  L 62.77 51.72
  A 0.60 0.59 6.3 0 1 63.34 51.27
  L 68.02 51.21
  A 0.46 0.46 0.0 0 0 68.45 50.60
  Z
  M 67.73 56.56
  A 0.92 0.92 0.0 0 1 66.85 57.74
  L 61.31 57.76
  A 0.33 0.32 52.2 0 0 61.23 58.40
  Q 64.55 59.26 67.98 58.55
  Q 68.44 58.45 68.46 57.99
  L 68.60 55.69
  A 0.49 0.40 64.1 0 0 67.80 55.32
  Q 67.54 55.91 67.73 56.56
  Z
  M 67.81 67.44
  Q 65.51 64.89 68.30 62.86
  A 0.33 0.33 0.0 0 0 68.01 62.27
  Q 64.91 63.21 61.99 64.69
  A 0.72 0.71 -47.3 0 0 62.04 65.99
  L 68.23 68.48
  A 0.27 0.27 0.0 0 0 68.58 68.14
  Q 68.35 67.51 67.81 67.44
  Z
  M 62.69 74.27
  L 62.40 72.34
  Q 62.39 72.25 62.29 72.25
  Q 62.15 72.25 62.02 72.25
  Q 61.54 72.24 61.51 72.72
  Q 61.40 74.84 63.13 75.72
  A 0.87 0.86 33.9 0 0 64.17 75.52
  L 66.14 73.25
  A 0.77 0.75 -56.5 0 1 67.03 73.06
  L 67.27 73.17
  Q 67.93 73.48 67.64 74.15
  Q 67.37 74.78 67.45 75.17
  A 0.61 0.61 0.0 0 0 68.65 74.99
  C 68.28 70.86 64.97 70.69 64.16 74.32
  A 0.75 0.75 0.0 0 1 62.69 74.27
  Z
  M 125.04 94.54
  L 125.33 117.04
  Q 125.34 117.50 125.79 117.50
  L 134.12 117.50
  A 0.62 0.61 90.0 0 0 134.73 116.88
  L 134.64 84.20
  Q 134.64 83.50 133.95 83.50
  L 119.91 83.50
  Q 119.52 83.50 119.40 83.88
  L 109.15 117.04
  Q 108.83 118.06 108.56 117.03
  L 99.82 83.92
  Q 99.69 83.43 99.19 83.43
  L 89.71 83.53
  A 5.01 5.01 0.0 0 0 84.75 88.54
  L 84.75 139.04
  Q 84.75 139.52 85.23 139.52
  L 93.86 139.53
  Q 94.25 139.53 94.25 139.14
  L 94.25 94.53
  A 0.24 0.24 0.0 0 1 94.72 94.48
  L 103.37 128.91
  A 1.11 1.10 82.9 0 0 104.44 129.75
  L 113.40 129.75
  Q 113.92 129.75 114.07 129.25
  L 124.57 94.48
  A 0.24 0.24 0.0 0 1 125.04 94.54
  Z
  M 34.64 83.77
  L 34.70 114.43
  A 0.31 0.31 0.0 0 0 35.01 114.74
  L 47.77 114.72
  A 13.27 13.25 89.9 0 0 60.99 101.43
  L 60.99 96.69
  A 13.27 13.25 89.9 0 0 47.71 83.44
  L 34.95 83.46
  A 0.31 0.31 0.0 0 0 34.64 83.77
  Z
  M 68.60 106.23
  A 0.43 0.43 0.0 0 1 69.03 105.75
  L 80.82 105.75
  Q 81.61 105.75 81.49 104.97
  Q 81.33 103.99 81.31 103.03
  C 81.01 88.05 57.65 92.67 64.31 109.48
  C 67.06 116.41 78.64 116.87 80.79 108.93
  Q 80.91 108.47 80.44 108.36
  C 76.42 107.45 75.50 110.17 72.53 110.24
  Q 69.09 110.32 68.60 106.23
  Z"
/>
<path fill="#654e28" fill-opacity="0.949" d="
  M 31.52 19.59
  C 33.94 20.50 35.84 22.40 38.18 23.67
  A 0.29 0.29 0.0 0 1 38.13 24.20
  L 37.78 24.33
  Q 37.41 24.45 37.07 24.27
  C 35.06 23.20 33.39 25.27 33.84 27.19
  Q 33.97 27.74 33.41 27.71
  C 32.55 27.66 30.46 21.93 30.10 21.04
  A 1.11 1.11 0.0 0 1 31.52 19.59
  Z
  M 32.73 23.54
  Q 32.92 23.92 33.27 24.01
  A 0.64 0.63 10.9 0 0 34.06 23.48
  Q 34.25 21.95 32.55 21.67
  A 0.68 0.67 -80.6 0 0 31.78 22.23
  Q 31.68 22.83 32.33 23.15
  Q 32.60 23.28 32.73 23.54
  Z"
/>
<path fill="#5a4929" fill-opacity="0.643" d="
  M 142.47 24.84
  Q 142.50 24.75 142.55 24.60
  Q 142.55 24.57 142.58 24.56
  Q 143.58 24.25 143.99 24.86
  Q 144.37 25.43 143.74 25.69
  L 140.38 27.07
  Q 140.01 27.23 140.00 27.63
  Q 139.97 29.59 138.81 31.18
  Q 138.49 31.62 138.11 31.24
  L 137.92 31.04
  Q 137.62 30.74 137.73 30.33
  L 138.14 28.77
  Q 138.31 28.12 137.69 27.87
  Q 136.60 27.44 136.13 28.29
  A 0.64 0.64 0.0 0 1 135.19 28.49
  L 134.73 28.15
  A 0.47 0.47 0.0 0 1 134.82 27.34
  L 138.66 25.78
  Q 139.01 25.64 139.06 25.27
  L 139.47 22.55
  A 0.66 0.65 12.5 0 1 140.30 22.03
  C 141.50 22.38 140.62 23.92 141.09 24.91
  A 0.75 0.74 42.0 0 0 142.47 24.84
  Z"
/>
<path fill="#654e28" fill-opacity="0.949" d="
  M 27.04 31.29
  Q 28.43 31.72 28.49 33.20
  A 0.51 0.51 0.0 0 1 27.62 33.59
  L 22.40 28.58
  A 0.82 0.82 0.0 0 1 22.42 27.37
  L 25.08 25.03
  Q 25.44 24.72 25.90 24.81
  Q 27.97 25.21 28.45 26.94
  A 1.13 1.11 -37.2 0 1 28.32 27.83
  L 26.71 30.40
  A 0.60 0.60 0.0 0 0 27.04 31.29
  Z
  M 27.08 26.91
  Q 25.20 25.48 24.01 27.21
  A 1.31 1.31 0.0 0 0 25.97 28.92
  L 27.12 27.87
  Q 27.68 27.36 27.08 26.91
  Z"
/>
<path fill="#5a4929" fill-opacity="0.643" d="
  M 143.07 33.92
  Q 142.04 34.82 140.82 34.29
  A 0.54 0.54 0.0 0 1 140.88 33.27
  L 144.04 32.33
  Q 144.58 32.17 144.82 31.66
  L 146.23 28.72
  A 0.49 0.48 19.8 0 1 146.79 28.46
  L 147.20 28.57
  Q 147.93 28.75 147.62 29.43
  L 146.94 30.97
  A 0.46 0.46 0.0 0 0 147.58 31.57
  Q 149.30 30.66 150.26 32.09
  A 0.43 0.43 0.0 0 1 149.90 32.76
  Q 145.54 32.74 145.02 36.92
  A 0.92 0.92 0.0 0 1 143.22 37.06
  C 142.90 35.89 144.50 35.11 143.93 34.08
  Q 143.60 33.46 143.07 33.92
  Z"
/>
<path fill="#ffffff" d="
  M 84.53 79.12
  L 75.15 79.01
  Q 74.76 79.00 74.76 78.62
  Q 74.72 58.08 74.77 37.56
  C 74.78 33.57 80.94 33.71 84.51 34.20
  Q 85.00 34.27 85.00 34.77
  L 85.00 78.65
  A 0.47 0.47 0.0 0 1 84.53 79.12
  Z"
/>
<path fill="#ffffff" d="
  M 98.07 65.74
  C 99.62 74.67 115.47 74.28 115.73 67.22
  C 116.10 57.63 85.45 64.03 90.70 43.95
  C 93.08 34.85 102.69 33.51 110.77 34.71
  Q 121.82 36.36 122.88 47.25
  Q 122.93 47.78 122.40 47.87
  Q 118.95 48.43 115.65 47.39
  Q 115.11 47.22 114.82 46.73
  C 108.48 36.15 92.43 44.45 101.01 50.48
  C 108.72 55.89 125.03 52.66 124.76 66.49
  C 124.50 79.70 109.68 81.31 99.91 78.84
  Q 90.01 76.33 89.53 66.09
  Q 89.51 65.60 90.00 65.58
  L 97.47 65.25
  A 0.59 0.58 83.8 0 1 98.07 65.74
  Z"
/>
<rect fill="#5a4929" fill-opacity="0.643" x="-4.24" y="-0.90" transform="translate(149.95,38.87) rotate(-34.8)" width="8.48" height="1.80" rx="0.85"/>
<path fill="#ffffff" d="
  M 68.55 45.50
  A 0.26 0.26 0.0 0 1 68.30 45.95
  L 62.32 43.60
  A 0.94 0.94 0.0 0 1 62.33 41.85
  L 68.18 39.61
  A 0.35 0.35 0.0 0 1 68.51 40.22
  Q 64.89 42.83 68.55 45.50
  Z
  M 63.71 43.12
  L 65.34 43.90
  Q 65.96 44.20 65.98 43.51
  L 66.01 42.27
  Q 66.03 41.46 65.25 41.68
  L 63.79 42.09
  A 0.55 0.55 0.0 0 0 63.71 43.12
  Z"
/>
<path fill="#5a4929" fill-opacity="0.643" d="
  M 17.52 43.04
  L 20.04 42.89
  A 0.46 0.46 0.0 0 1 20.46 43.59
  L 20.31 43.84
  A 0.74 0.74 0.0 0 1 19.62 44.21
  Q 18.28 44.14 16.87 43.95
  A 0.71 0.70 1.7 0 0 16.07 44.70
  L 16.13 45.54
  Q 16.17 46.17 16.80 46.22
  Q 17.46 46.27 18.11 46.67
  A 0.88 0.74 -9.3 0 1 17.05 47.91
  L 11.46 44.71
  A 0.80 0.79 18.1 0 1 11.06 43.93
  C 11.40 40.71 16.16 37.64 16.83 42.47
  Q 16.91 43.08 17.52 43.04
  Z
  M 15.52 42.87
  A 1.39 1.39 0.0 0 0 14.13 41.48
  A 1.39 1.39 0.0 0 0 12.74 42.87
  A 1.39 1.39 0.0 0 0 14.13 44.26
  A 1.39 1.39 0.0 0 0 15.52 42.87
  Z"
/>
<path fill="#8b2a31" d="
  M 63.71 43.12
  A 0.55 0.55 0.0 0 1 63.79 42.09
  L 65.25 41.68
  Q 66.03 41.46 66.01 42.27
  L 65.98 43.51
  Q 65.96 44.20 65.34 43.90
  L 63.71 43.12
  Z"
/>
<path fill="#a67f45" d="
  M 16.76 101.75
  Q 25.26 132.03 52.26 146.49
  C 65.21 153.43 80.60 155.86 95.21 153.62
  C 142.86 146.33 168.21 94.90 146.52 52.09
  L 159.76 45.34
  Q 160.85 44.79 161.38 45.89
  C 182.77 90.85 163.10 144.58 116.51 163.56
  C 94.49 172.54 68.37 171.78 47.10 161.67
  Q 11.91 144.95 0.82 106.21
  Q 0.70 105.80 1.11 105.70
  L 16.76 101.75
  Z
  M 65.98 160.01
  L 67.58 165.01
  A 0.92 0.92 0.0 0 0 69.36 164.92
  L 70.88 157.89
  Q 71.01 157.30 70.40 157.22
  C 69.04 157.05 68.97 160.69 68.77 161.58
  A 0.38 0.38 0.0 0 1 68.04 161.61
  L 66.65 157.00
  A 1.14 1.14 0.0 0 0 64.45 157.08
  L 62.95 163.87
  A 0.50 0.49 -77.5 0 0 63.32 164.46
  C 64.77 164.81 65.03 161.06 65.36 160.01
  Q 65.67 159.05 65.98 160.01
  Z
  M 98.66 158.14
  Q 99.80 158.74 100.86 158.06
  A 1.00 0.99 -10.5 0 1 102.38 159.10
  L 101.18 164.74
  A 0.57 0.57 0.0 0 0 102.03 165.35
  C 103.13 164.71 104.01 158.01 104.22 156.49
  A 0.47 0.47 0.0 0 0 103.63 155.97
  L 98.76 157.28
  A 0.47 0.46 51.7 0 0 98.66 158.14
  Z
  M 95.4753 166.4987
  A 4.46 3.11 82.2 0 0 97.9512 161.6579
  A 4.46 3.11 82.2 0 0 94.2647 157.6613
  A 4.46 3.11 82.2 0 0 91.7888 162.5021
  A 4.46 3.11 82.2 0 0 95.4753 166.4987
  Z
  M 72.8257 161.9677
  A 2.21 1.97 118.2 0 0 75.6062 160.9509
  A 2.21 1.97 118.2 0 0 74.9143 158.0723
  A 2.21 1.97 118.2 0 0 72.1338 159.0891
  A 2.21 1.97 118.2 0 0 72.8257 161.9677
  Z
  M 77.69 162.56
  L 76.78 164.13
  A 1.03 1.02 46.6 0 0 76.76 165.13
  C 77.95 167.36 82.38 167.97 82.84 164.92
  A 1.43 1.43 0.0 0 0 82.57 163.87
  Q 81.43 162.34 82.80 161.04
  A 0.82 0.81 54.1 0 0 82.95 160.05
  Q 81.72 157.85 78.93 158.36
  A 1.80 1.80 0.0 0 0 77.53 160.68
  L 77.80 161.57
  Q 77.96 162.09 77.69 162.56
  Z
  M 86.94 164.95
  C 87.93 163.90 89.57 163.09 89.94 161.75
  C 91.15 157.42 84.54 157.70 84.80 160.69
  A 0.44 0.44 0.0 0 0 85.51 161.00
  L 87.09 159.76
  A 0.70 0.70 0.0 0 1 88.03 159.84
  C 89.63 161.59 85.34 164.13 84.53 166.22
  A 0.59 0.59 0.0 0 0 85.09 167.02
  L 89.70 166.96
  Q 90.24 166.95 90.25 166.42
  C 90.29 164.84 88.12 165.66 87.26 165.66
  A 0.43 0.42 21.1 0 1 86.94 164.95
  Z"
/>
<path fill="#ffffff" d="
  M 62.28 48.70
  C 62.95 51.61 68.02 49.38 68.45 50.60
  A 0.46 0.46 0.0 0 1 68.02 51.21
  L 63.34 51.27
  A 0.60 0.59 6.3 0 0 62.77 51.72
  L 62.45 52.97
  Q 62.30 53.56 61.94 53.08
  Q 61.84 52.95 61.75 52.85
  Q 61.57 52.63 61.62 52.35
  Q 61.94 50.65 61.35 48.97
  A 0.36 0.36 0.0 0 1 61.72 48.49
  Q 61.88 48.50 62.03 48.50
  Q 62.24 48.50 62.28 48.70
  Z"
/>
<path fill="#5a4929" fill-opacity="0.643" d="
  M 14.37 52.08
  Q 12.29 53.67 13.70 55.89
  A 0.66 0.65 -84.6 0 1 12.70 56.72
  L 7.37 51.72
  A 1.01 1.01 0.0 0 1 8.16 49.97
  L 15.30 50.64
  A 0.57 0.57 0.0 0 1 15.82 51.15
  Q 16.00 52.70 15.07 52.06
  Q 14.71 51.82 14.37 52.08
  Z
  M 11.98 53.60
  A 0.67 0.67 0.0 0 0 12.47 52.45
  Q 11.44 51.48 10.15 51.74
  Q 9.79 51.82 9.89 52.18
  Q 10.29 53.53 11.98 53.60
  Z"
/>
<path fill="#ffffff" d="
  M 67.73 56.56
  Q 67.54 55.91 67.80 55.32
  A 0.49 0.40 64.1 0 1 68.60 55.69
  L 68.46 57.99
  Q 68.44 58.45 67.98 58.55
  Q 64.55 59.26 61.23 58.40
  A 0.33 0.32 52.2 0 1 61.31 57.76
  L 66.85 57.74
  A 0.92 0.92 0.0 0 0 67.73 56.56
  Z"
/>
<path fill="#5a4929" fill-opacity="0.643" d="
  M 5.82 59.74
  A 1.24 1.24 0.0 0 0 5.79 62.02
  L 8.52 63.20
  A 1.65 1.53 -8.0 0 0 10.49 60.78
  Q 9.92 60.19 10.36 59.78
  A 1.36 1.36 0.0 0 1 12.62 61.08
  C 11.19 67.13 3.26 64.46 3.87 60.27
  Q 4.12 58.59 5.69 57.96
  Q 6.34 57.69 6.48 58.38
  Q 6.70 59.39 5.82 59.74
  Z"
/>
<path fill="#ffffff" d="
  M 67.81 67.44
  Q 68.35 67.51 68.58 68.14
  A 0.27 0.27 0.0 0 1 68.23 68.48
  L 62.04 65.99
  A 0.72 0.71 -47.3 0 1 61.99 64.69
  Q 64.91 63.21 68.01 62.27
  A 0.33 0.33 0.0 0 1 68.30 62.86
  Q 65.51 64.89 67.81 67.44
  Z
  M 63.77 65.95
  L 65.34 66.35
  Q 66.00 66.51 66.00 65.84
  L 66.00 64.71
  A 0.57 0.57 0.0 0 0 65.19 64.20
  L 63.67 64.90
  A 0.56 0.56 0.0 0 0 63.77 65.95
  Z"
/>
<path fill="#8b2a31" d="
  M 63.77 65.95
  A 0.56 0.56 0.0 0 1 63.67 64.90
  L 65.19 64.20
  A 0.57 0.57 0.0 0 1 66.00 64.71
  L 66.00 65.84
  Q 66.00 66.51 65.34 66.35
  L 63.77 65.95
  Z"
/>
<path fill="#5a4929" fill-opacity="0.643" d="
  M 8.41 71.74
  L 8.51 70.54
  Q 8.56 69.93 7.96 69.85
  Q 5.17 69.45 2.49 68.43
  A 0.56 0.56 0.0 0 1 2.80 67.35
  L 8.44 68.45
  Q 8.92 68.55 9.17 68.97
  C 10.66 71.53 9.85 75.35 6.01 74.42
  Q 3.77 73.88 1.78 73.57
  A 0.72 0.72 0.0 0 1 1.99 72.15
  L 7.08 72.81
  A 1.18 1.18 0.0 0 0 8.41 71.74
  Z"
/>
<path fill="#ffffff" d="
  M 62.69 74.27
  A 0.75 0.75 0.0 0 0 64.16 74.32
  C 64.97 70.69 68.28 70.86 68.65 74.99
  A 0.61 0.61 0.0 0 1 67.45 75.17
  Q 67.37 74.78 67.64 74.15
  Q 67.93 73.48 67.27 73.17
  L 67.03 73.06
  A 0.77 0.75 -56.5 0 0 66.14 73.25
  L 64.17 75.52
  A 0.87 0.86 33.9 0 1 63.13 75.72
  Q 61.40 74.84 61.51 72.72
  Q 61.54 72.24 62.02 72.25
  Q 62.15 72.25 62.29 72.25
  Q 62.39 72.25 62.40 72.34
  L 62.69 74.27
  Z"
/>
<path fill="#654e28" fill-opacity="0.949" d="
  M 0.78 84.48
  A 0.56 0.56 0.0 0 1 0.23 83.90
  L 0.29 81.91
  A 3.81 3.62 -88.3 0 1 4.02 78.21
  L 5.26 78.25
  A 3.81 3.62 -88.3 0 1 8.77 82.17
  L 8.71 84.15
  A 0.56 0.56 0.0 0 1 8.13 84.70
  L 0.78 84.48
  Z
  M 2.56 83.33
  L 6.82 83.18
  A 0.74 0.74 0.0 0 0 7.53 82.42
  L 7.53 82.19
  A 2.55 2.02 88.0 0 0 5.42 79.71
  L 3.72 79.77
  A 2.55 2.02 88.0 0 0 1.79 82.39
  L 1.80 82.62
  A 0.74 0.74 0.0 0 0 2.56 83.33
  Z"
/>
<path fill="#ffffff" d="
  M 124.57 94.48
  L 114.07 129.25
  Q 113.92 129.75 113.40 129.75
  L 104.44 129.75
  A 1.11 1.10 82.9 0 1 103.37 128.91
  L 94.72 94.48
  A 0.24 0.24 0.0 0 0 94.25 94.53
  L 94.25 139.14
  Q 94.25 139.53 93.86 139.53
  L 85.23 139.52
  Q 84.75 139.52 84.75 139.04
  L 84.75 88.54
  A 5.01 5.01 0.0 0 1 89.71 83.53
  L 99.19 83.43
  Q 99.69 83.43 99.82 83.92
  L 108.56 117.03
  Q 108.83 118.06 109.15 117.04
  L 119.40 83.88
  Q 119.52 83.50 119.91 83.50
  L 133.95 83.50
  Q 134.64 83.50 134.64 84.20
  L 134.73 116.88
  A 0.62 0.61 -90.0 0 1 134.12 117.50
  L 125.79 117.50
  Q 125.34 117.50 125.33 117.04
  L 125.04 94.54
  A 0.24 0.24 0.0 0 0 124.57 94.48
  Z"
/>
<path fill="#ffffff" d="
  M 34.64 83.77
  A 0.31 0.31 0.0 0 1 34.95 83.46
  L 47.71 83.44
  A 13.27 13.25 89.9 0 1 60.99 96.69
  L 60.99 101.43
  A 13.27 13.25 89.9 0 1 47.77 114.72
  L 35.01 114.74
  A 0.31 0.31 0.0 0 1 34.70 114.43
  L 34.64 83.77
  Z
  M 40.98 89.61
  L 40.92 108.37
  A 0.67 0.67 0.0 0 0 41.58 109.04
  L 46.99 109.06
  A 8.04 7.48 -89.8 0 0 54.50 101.04
  L 54.52 97.02
  A 8.04 7.48 -89.8 0 0 47.07 88.96
  L 41.66 88.94
  A 0.67 0.67 0.0 0 0 40.98 89.61
  Z"
/>
<path fill="#654e28" fill-opacity="0.949" d="
  M 8.92 91.66
  L 9.26 93.00
  Q 9.42 93.66 8.75 93.67
  L 1.53 93.79
  Q 0.90 93.80 0.79 93.18
  Q 0.39 90.81 0.56 88.42
  A 0.37 0.37 0.0 0 1 1.29 88.37
  Q 1.65 90.12 1.86 91.86
  Q 1.90 92.22 2.27 92.23
  L 3.64 92.26
  Q 4.22 92.27 4.24 91.69
  Q 4.26 90.84 4.25 90.03
  A 0.49 0.49 0.0 0 1 5.07 89.67
  Q 5.65 90.22 5.53 91.01
  Q 5.45 91.54 5.88 91.85
  Q 6.66 92.43 7.38 91.96
  Q 7.87 91.63 7.80 91.04
  L 7.49 88.69
  A 0.43 0.43 0.0 0 1 8.23 88.34
  Q 9.25 89.44 8.92 90.75
  Q 8.81 91.20 8.92 91.66
  Z"
/>
<path fill="#8b2a31" d="
  M 40.98 89.61
  A 0.67 0.67 0.0 0 1 41.66 88.94
  L 47.07 88.96
  A 8.04 7.48 -89.8 0 1 54.52 97.02
  L 54.50 101.04
  A 8.04 7.48 -89.8 0 1 46.99 109.06
  L 41.58 109.04
  A 0.67 0.67 0.0 0 1 40.92 108.37
  L 40.98 89.61
  Z"
/>
<path fill="#ffffff" d="
  M 68.60 106.23
  Q 69.09 110.32 72.53 110.24
  C 75.50 110.17 76.42 107.45 80.44 108.36
  Q 80.91 108.47 80.79 108.93
  C 78.64 116.87 67.06 116.41 64.31 109.48
  C 57.65 92.67 81.01 88.05 81.31 103.03
  Q 81.33 103.99 81.49 104.97
  Q 81.61 105.75 80.82 105.75
  L 69.03 105.75
  A 0.43 0.43 0.0 0 0 68.60 106.23
  Z
  M 69.01 102.02
  L 75.73 102.26
  A 0.26 0.26 0.0 0 0 76.00 102.01
  L 76.00 101.87
  A 3.50 3.48 -88.0 0 0 72.65 98.25
  L 72.37 98.24
  A 3.50 3.48 -88.0 0 0 68.77 101.61
  L 68.76 101.75
  A 0.26 0.26 0.0 0 0 69.01 102.02
  Z"
/>
<path fill="#8b2a31" d="
  M 69.01 102.02
  A 0.26 0.26 0.0 0 1 68.76 101.75
  L 68.77 101.61
  A 3.50 3.48 -88.0 0 1 72.37 98.24
  L 72.65 98.25
  A 3.50 3.48 -88.0 0 1 76.00 101.87
  L 76.00 102.01
  A 0.26 0.26 0.0 0 1 75.73 102.26
  L 69.01 102.02
  Z"
/>
<path fill="#ffffff" d="
  M 65.36 160.01
  C 65.03 161.06 64.77 164.81 63.32 164.46
  A 0.50 0.49 -77.5 0 1 62.95 163.87
  L 64.45 157.08
  A 1.14 1.14 0.0 0 1 66.65 157.00
  L 68.04 161.61
  A 0.38 0.38 0.0 0 0 68.77 161.58
  C 68.97 160.69 69.04 157.05 70.40 157.22
  Q 71.01 157.30 70.88 157.89
  L 69.36 164.92
  A 0.92 0.92 0.0 0 1 67.58 165.01
  L 65.98 160.01
  Q 65.67 159.05 65.36 160.01
  Z"
/>
<path fill="#ffffff" d="
  M 98.66 158.14
  A 0.47 0.46 51.7 0 1 98.76 157.28
  L 103.63 155.97
  A 0.47 0.47 0.0 0 1 104.22 156.49
  C 104.01 158.01 103.13 164.71 102.03 165.35
  A 0.57 0.57 0.0 0 1 101.18 164.74
  L 102.38 159.10
  A 1.00 0.99 -10.5 0 0 100.86 158.06
  Q 99.80 158.74 98.66 158.14
  Z"
/>
<path fill="#ffffff" d="
  M 95.4753 166.4987
  A 4.46 3.11 82.2 0 1 91.7888 162.5021
  A 4.46 3.11 82.2 0 1 94.2647 157.6613
  A 4.46 3.11 82.2 0 1 97.9512 161.6579
  A 4.46 3.11 82.2 0 1 95.4753 166.4987
  Z
  M 95.2782 165.0990
  A 3.07 1.50 83.3 0 0 96.4098 161.8750
  A 3.07 1.50 83.3 0 0 94.5618 159.0010
  A 3.07 1.50 83.3 0 0 93.4302 162.2250
  A 3.07 1.50 83.3 0 0 95.2782 165.0990
  Z"
/>
<path fill="#ffffff" d="
  M 72.8257 161.9677
  A 2.21 1.97 118.2 0 1 72.1338 159.0891
  A 2.21 1.97 118.2 0 1 74.9143 158.0723
  A 2.21 1.97 118.2 0 1 75.6062 160.9509
  A 2.21 1.97 118.2 0 1 72.8257 161.9677
  Z
  M 73.4928 161.0203
  A 1.04 0.83 109.5 0 0 74.6224 160.3171
  A 1.04 0.83 109.5 0 0 74.1872 159.0597
  A 1.04 0.83 109.5 0 0 73.0576 159.7629
  A 1.04 0.83 109.5 0 0 73.4928 161.0203
  Z"
/>
<path fill="#ffffff" d="
  M 77.80 161.57
  L 77.53 160.68
  A 1.80 1.80 0.0 0 1 78.93 158.36
  Q 81.72 157.85 82.95 160.05
  A 0.82 0.81 54.1 0 1 82.80 161.04
  Q 81.43 162.34 82.57 163.87
  A 1.43 1.43 0.0 0 1 82.84 164.92
  C 82.38 167.97 77.95 167.36 76.76 165.13
  A 1.03 1.02 46.6 0 1 76.78 164.13
  L 77.69 162.56
  Q 77.96 162.09 77.80 161.57
  Z
  M 81.19 160.49
  A 1.08 1.08 0.0 0 0 80.11 159.41
  A 1.08 1.08 0.0 0 0 79.03 160.49
  A 1.08 1.08 0.0 0 0 80.11 161.57
  A 1.08 1.08 0.0 0 0 81.19 160.49
  Z
  M 81.3798 164.5024
  A 1.58 1.31 -1.0 0 0 79.7771 163.2202
  A 1.58 1.31 -1.0 0 0 78.2202 164.5576
  A 1.58 1.31 -1.0 0 0 79.8229 165.8398
  A 1.58 1.31 -1.0 0 0 81.3798 164.5024
  Z"
/>
<path fill="#ffffff" d="
  M 87.26 165.66
  C 88.12 165.66 90.29 164.84 90.25 166.42
  Q 90.24 166.95 89.70 166.96
  L 85.09 167.02
  A 0.59 0.59 0.0 0 1 84.53 166.22
  C 85.34 164.13 89.63 161.59 88.03 159.84
  A 0.70 0.70 0.0 0 0 87.09 159.76
  L 85.51 161.00
  A 0.44 0.44 0.0 0 1 84.80 160.69
  C 84.54 157.70 91.15 157.42 89.94 161.75
  C 89.57 163.09 87.93 163.90 86.94 164.95
  A 0.43 0.42 21.1 0 0 87.26 165.66
  Z"
/>
<ellipse fill="#654e28" fill-opacity="0.949" cx="0.00" cy="0.00" transform="translate(73.84,160.04) rotate(109.5)" rx="1.04" ry="0.83"/>
<ellipse fill="#a67f45" cx="0.00" cy="0.00" transform="translate(94.92,162.05) rotate(83.3)" rx="3.07" ry="1.50"/>
<circle fill="#a67f45" cx="80.11" cy="160.49" r="1.08"/>
<ellipse fill="#a67f45" cx="0.00" cy="0.00" transform="translate(79.80,164.53) rotate(-1.0)" rx="1.58" ry="1.31"/>
</svg>
